<?xml version="1.0" standalone="no"?>
<!DOCTYPE svg PUBLIC "-//W3C//DTD SVG 20010904//EN"
 "http://www.w3.org/TR/2001/REC-SVG-20010904/DTD/svg10.dtd">
<svg version="1.0" xmlns="http://www.w3.org/2000/svg"
 width="512.000000pt" height="512.000000pt" viewBox="0 0 512.000000 512.000000"
 preserveAspectRatio="xMidYMid meet">
<metadata>
Created by potrace 1.11, written by Peter Selinger 2001-2013
</metadata>
<g transform="translate(0.000000,512.000000) scale(0.100000,-0.100000)"
fill="#000000" stroke="none">
<path d="M2305 5109 c-38 -4 -87 -10 -107 -13 -21 -3 -55 -8 -75 -12 -79 -11
-292 -66 -393 -101 -532 -182 -995 -540 -1306 -1009 -65 -98 -64 -96 -123
-206 -79 -147 -191 -426 -215 -539 -3 -13 -14 -62 -25 -109 -46 -201 -59 -344
-56 -600 3 -204 8 -262 40 -450 3 -19 21 -94 40 -167 206 -789 801 -1449 1565
-1737 52 -20 100 -36 106 -36 8 0 11 64 12 215 l0 215 -51 22 c-559 240 -998
716 -1191 1288 -25 74 -47 146 -50 160 -2 14 -9 45 -15 70 -38 168 -49 288
-45 495 2 158 8 239 19 291 3 12 7 39 11 60 3 21 19 89 34 149 177 688 687
1249 1351 1486 102 36 263 80 344 93 17 3 44 7 60 10 74 13 141 18 291 22
l161 4 0 -2017 1 -2018 48 1 c46 1 108 8 164 19 69 13 89 18 143 32 l57 16 0
806 0 806 463 0 462 0 -3 -35 c-2 -19 -12 -71 -23 -115 -73 -289 -216 -529
-444 -746 l-50 -48 0 -240 c0 -132 3 -242 6 -245 7 -8 141 80 229 150 373 299
610 707 695 1199 23 136 24 450 1 561 -2 12 -7 39 -10 60 -69 437 -355 903
-721 1174 -81 61 -186 130 -196 130 -2 0 -4 -110 -4 -245 l0 -244 92 -93 c51
-51 102 -106 115 -123 12 -16 25 -32 28 -35 30 -25 143 -224 194 -340 36 -82
93 -294 91 -340 0 -13 -59 -15 -462 -15 l-463 0 0 1151 0 1151 -102 17 c-57 9
-139 20 -183 25 -95 10 -411 10 -510 0z"/>
<path d="M3352 4774 c1 -212 1 -216 22 -224 49 -18 186 -87 266 -133 447 -257
802 -695 963 -1192 26 -79 61 -216 72 -285 3 -19 8 -42 10 -50 19 -66 26 -427
12 -555 -20 -178 -46 -296 -103 -465 -196 -579 -626 -1042 -1194 -1287 -138
-59 -352 -124 -455 -138 -11 -1 -36 -5 -55 -8 -74 -13 -120 -17 -261 -23 -81
-4 -158 -4 -172 0 l-24 6 -1 1982 c0 1091 -1 1998 -1 2017 l-1 33 -57 -6
c-107 -12 -135 -16 -227 -37 -557 -123 -1033 -498 -1287 -1014 -55 -112 -132
-323 -144 -397 -3 -18 -8 -41 -11 -51 -3 -11 -7 -29 -9 -40 -1 -12 -8 -58 -15
-102 -20 -127 -17 -400 5 -530 19 -111 51 -241 81 -328 63 -183 186 -410 296
-548 l28 -34 145 146 146 145 -56 85 c-63 95 -132 233 -164 326 -29 85 -60
211 -63 253 l-3 35 460 0 460 0 5 -1150 5 -1150 60 -12 c33 -6 79 -14 103 -17
23 -3 63 -9 90 -13 82 -13 520 -9 612 5 236 37 424 86 608 158 831 327 1433
1067 1586 1950 26 146 31 227 31 459 -1 223 -9 309 -46 490 -163 790 -681
1450 -1412 1800 -99 47 -272 115 -293 115 -9 0 -12 -61 -12 -216z m-1334
-1421 l-3 -588 -453 0 c-250 0 -458 2 -462 5 -21 13 50 271 112 410 107 239
325 487 558 635 48 31 230 124 243 125 4 0 6 -264 5 -587z"/>
</g>
</svg>
